<?xml version="1.0" encoding="UTF-8"?>
<svg id="Layer_2" xmlns="http://www.w3.org/2000/svg" viewBox="0 0 78 78">
  <defs>
    <style>
      .cls-1 {
        fill: #9ae2bf;
      }

      .cls-1, .cls-2 {
        fill-rule: evenodd;
      }

      .cls-3 {
        fill: #fff;
      }

      .cls-2 {
        fill: #66d3a4;
      }
    </style>
  </defs>
  <g id="Layer_1-2" data-name="Layer_1">
    <g>
      <path id="shape-6" class="cls-3" d="M39,78C17.5,78,0,60.5,0,39h0C0,17.5,17.5,0,39,0h0c21.5,0,39,17.5,39,39h0c0,21.5-17.5,39-39,39Z"/>
      <g>
        <path class="cls-1" d="M28.7,45.9c0-3.6,3.3-6.1,6.8-6.1s1.8.2,2.6.4c.8-.3,1.7-.4,2.6-.4,3.5,0,6.8,2.5,6.8,6.1s-1.1,3.7-2.6,4.8v10.7c0,2.1-1.7,3.9-3.9,3.9h-5.9c-2.1,0-3.9-1.7-3.9-3.9v-10.7c-1.5-1.1-2.6-2.8-2.6-4.8h.1ZM35.5,43.1c-2.2,0-3.5,1.5-3.5,2.8s.6,1.8,1.7,2.3c.6.3.9.9.9,1.5v11.7c0,.3.2.6.6.6h5.9c.3,0,.6-.2.6-.6v-11.7c0-.6.4-1.2.9-1.5,1.1-.5,1.7-1.5,1.7-2.3,0-1.3-1.3-2.8-3.5-2.8s-1.3.2-1.8.4-1,.2-1.5,0c-.5-.3-1.2-.4-1.8-.4h-.2Z"/>
        <path class="cls-2" d="M36.2,37.8c-3.4-.8-6.1-3.9-5.4-7.4.4-2,1.8-3.4,3.5-4.1l2.3-10.5c.5-2.1,2.5-3.4,4.6-3l5.8,1.3c2.1.5,3.4,2.5,3,4.6l-2.3,10.5c1.3,1.4,1.9,3.3,1.5,5.2-.8,3.5-4.5,5.2-8,4.5-.9-.2-1.7-.5-2.4-1-.8.1-1.7,0-2.6-.1h0Z"/>
        <path class="cls-1" d="M49.8,40.9c.2-.9,1-1.5,1.9-1.4l3.3.6c.9.2,1.5,1,1.4,1.9-.2.9-1,1.5-1.9,1.4l-3.3-.6c-.9-.2-1.5-1-1.4-1.9Z"/>
        <path class="cls-1" d="M28.4,36.4c.2-.9-.4-1.8-1.3-2l-3.3-.7c-.9-.2-1.8.4-2,1.3-.2.9.4,1.8,1.3,2l3.3.7c.9.2,1.8-.4,2-1.3Z"/>
        <path class="cls-1" d="M50,45.3c.8-.5,1.8-.3,2.3.4l1.9,2.7c.5.8.3,1.8-.4,2.3-.8.5-1.8.3-2.3-.4l-1.9-2.7c-.5-.8-.3-1.8.4-2.3Z"/>
        <path class="cls-1" d="M26.6,40.4c-.5-.8-1.5-1-2.3-.5l-2.8,1.8c-.8.5-1,1.5-.5,2.3s1.5,1,2.3.5l2.8-1.8c.8-.5,1-1.5.5-2.3Z"/>
        <path class="cls-1" d="M51.5,36.8c-.5-.8-.3-1.8.4-2.3l2.7-1.9c.8-.5,1.8-.3,2.3.4.5.8.3,1.8-.4,2.3l-2.7,1.9c-.8.5-1.8.3-2.3-.4Z"/>
        <path class="cls-1" d="M28.3,32c.8-.5,1-1.5.5-2.3l-1.8-2.8c-.5-.8-1.5-1-2.3-.5s-1,1.5-.5,2.3l1.8,2.8c.5.8,1.5,1,2.3.5Z"/>
      </g>
    </g>
  </g>
</svg>