<?xml version="1.0" encoding="UTF-8"?>
<svg id="Layer_2" xmlns="http://www.w3.org/2000/svg" viewBox="0 0 47.87 44.6">
  <defs>
    <style>
      .cls-1 {
        fill: #afeef1;
      }

      .cls-2 {
        fill: #33d6e2;
      }
    </style>
  </defs>
  <g id="Layer_1-2" data-name="Layer_1">
    <g>
      <path class="cls-1" d="M26.87,0c-2.6,0-4.8,2.1-4.8,4.8s2.1,4.8,4.8,4.8,4.8-2.1,4.8-4.8S29.57,0,26.87,0Z"/>
      <path class="cls-1" d="M22.97,11.4c-3.8,0-3.8,2.8-3.8,3.8,0,3.4,1.7,8.4,1.7,8.4.3.9.9,1.6,1.6,2.1l5.3,3.2c.3.2.6.3.9.3.6,0,1.1-.3,1.5-.9.5-.9.2-1.9-.7-2.4l-5.4-3.2-1.1-3.8v-.4c0-.5.4-1,1-1s.8.3.9.7h0l.9,3.1,2.4,1.4h4.4v-4.8l3.2,4.8h4.1c-2.2-3.3-6.6-9.8-7.3-10.5-1-1-2.9-1-2.9-1h-6.7v.2h0Z"/>
      <path class="cls-1" d="M20.87,26.8v2.7h2.6l.5-.8-2.4-1.4h0c-.2-.2-.5-.3-.7-.5h0Z"/>
      <path class="cls-2" d="M31.17,24.8c1.1,1,1.4,2.4,1,3.8h9c1.1,0,1.9-.9,1.9-1.9s-.9-1.9-1.9-1.9h-10Z"/>
      <path class="cls-2" d="M45.97,39h-1c1.1,0,1.9-.9,1.9-1.9s-.9-1.9-1.9-1.9l-15.1-1,1.6-4.4c-.7.8-1.7,1.2-2.7,1.2s-1.3-.2-1.9-.6l-1.3-.8-1.1,1.7h-10c-2.1,0-3.8,1.7-3.8,3.8s1.7,3.8,3.8,3.8h-3.8l-.7-.8c-.6-.7-1.4-1.1-2.3-1.1h0c1.6-1.2,2.3-3.4,1.7-5.3s-2.5-3.3-4.5-3.3-3.9,1.4-4.6,3.4,0,4.2,1.9,5.3c-1.2.3-2.1,1.4-2.1,2.7v4.8h47.8v-3.8c0-1.1-.8-1.9-1.9-1.9h0v.1ZM29.17,39h-3.3c1.1,0,1.9-.9,1.9-1.9s-.9-1.9-1.9-1.9h-8.6c-.5,0-1-.4-1-1s.4-1,1-1h8.6c2.1,0,3.8,1.7,3.8,3.8s-.2,1.3-.5,1.9h0v.1Z"/>
    </g>
  </g>
</svg>