<?xml version="1.0" encoding="UTF-8"?>
<svg id="Layer_2" data-name="Layer 2" xmlns="http://www.w3.org/2000/svg" viewBox="0 0 190.34 128.2">
  <defs>
    <style>
      .cls-1 {
        fill: #fff;
      }
    </style>
  </defs>
  <g id="Layer_1-2" data-name="Layer 1">
    <g>
      <g>
        <path class="cls-1" d="M38.85,85.76c1.85,5.04-.74,10.63-5.78,12.48s-10.63-.74-12.48-5.78L.6,37.95c-1.85-5.04.74-10.63,5.78-12.48,5.04-1.85,10.63.74,12.48,5.78l19.98,54.51Z"/>
        <path class="cls-1" d="M20.76,85.8c-1.85,5.04.74,10.63,5.78,12.48s10.63-.74,12.48-5.78l19.98-54.51c1.85-5.04-.74-10.63-5.78-12.48-5.04-1.85-10.63.74-12.48,5.78l-19.98,54.51Z"/>
        <path class="cls-1" d="M79.15,85.76c1.85,5.04-.74,10.63-5.78,12.48s-10.63-.74-12.48-5.78l-19.98-54.51c-1.85-5.04.74-10.63,5.78-12.48,5.04-1.85,10.63.74,12.48,5.78l19.98,54.51Z"/>
        <path class="cls-1" d="M61.14,85.8c-1.85,5.04.74,10.63,5.78,12.48s10.63-.74,12.48-5.78l19.98-54.51c1.85-5.04-.74-10.63-5.78-12.48s-10.63.74-12.48,5.78l-19.98,54.51Z"/>
        <path class="cls-1" d="M113.64,69.69l-14.09-38.44c-1.85-5.04-7.44-7.63-12.48-5.78-5.04,1.85-7.63,7.44-5.78,12.48l22,60,10.36-28.26Z"/>
        <path class="cls-1" d="M96.99,115.12c-1.85,5.04.74,10.63,5.79,12.48,5.04,1.85,10.63-.74,12.48-5.78l30.73-83.83c1.85-5.04-.74-10.63-5.78-12.48-5.04-1.85-10.63.74-12.48,5.78l-30.73,83.83Z"/>
      </g>
      <polygon class="cls-1" points="190.34 11 179.34 11 179.34 0 166.9 0 166.9 11 155.9 11 155.9 23.44 166.9 23.44 166.9 34.44 179.34 34.44 179.34 23.44 190.34 23.44 190.34 11"/>
    </g>
  </g>
</svg>