<?xml version="1.0" encoding="UTF-8"?>
<svg id="Layer_2" xmlns="http://www.w3.org/2000/svg" viewBox="0 0 78 78">
  <defs>
    <style>
      .cls-1 {
        fill: #fff;
      }

      .cls-2 {
        fill: #66d3a4;
      }

      .cls-3 {
        fill: #9ae2bf;
      }
    </style>
  </defs>
  <g id="Layer_1-2" data-name="Layer_1">
    <g>
      <path id="shape-8" class="cls-1" d="M39,78C17.5,78,0,60.5,0,39h0C0,17.5,17.5,0,39,0h0c21.5,0,39,17.5,39,39h0c0,21.5-17.5,39-39,39Z"/>
      <g>
        <path class="cls-3" d="M56.2,38.8c-.6-1.1-1.3-2-1.6-3.8-1.3-6.2-6.2-6.7-8.8-7.1-3.6-.5-3.6-2.6-3.6-2.6v-.1c0-.5-.5-.8-1-.8l-7.1.9h0c-.4,0-.8.4-.8.9,0,.1,0,3.2-2.6,4h-.5c-1,.4-2.2.8-3.5,1.6-2.7,1.6-4.1,4.2-4.1,7.5s-.4,2.5-.8,3.3c-.5.9-1,1.3-1,3.4,0,.3.2.6.4.7,0,0,2.9,1.7,3.9,2.3h.3c.1,0,.2,0,.3-.1l.4-.4c2.6-2.8,2.6-5.6,2.6-6.5,0,5.3,1.8,7.1,1.8,8.8v1h0v1.7c0,1.8-2.6,5.3-2.6,8.8s.4.9.9.9h21.2c.5,0,.9-.4.9-.9,0-4.4-1.7-7.1-1.7-9.6v-2.8c0-1.8.9-4.4.9-9.7,0,.9,0,3.8,2.6,5.8,0,0,.2.2.5.3h.4l4.1-2.3c.2-.2.3-.4.3-.7-.2-2.4-1-3.3-1.8-4.6v.1Z"/>
        <polygon class="cls-2" points="63.4 24.7 53.7 29.2 58.4 24.8 55.3 23.8 60.8 19.7 64.6 20.9 60.4 23.7 63.4 24.7"/>
        <polygon class="cls-2" points="56.7 18.6 50.7 27.4 52.5 21.2 49.4 22 51.9 15.6 55.8 14.7 53.6 19.3 56.7 18.6"/>
        <polygon class="cls-2" points="20.4 21.3 24.5 31.2 20.3 26.4 19.3 29.4 15.3 23.8 16.6 20 19.3 24.3 20.4 21.3"/>
      </g>
    </g>
  </g>
</svg>