<?xml version="1.0" encoding="UTF-8"?>
<svg id="Layer_2" xmlns="http://www.w3.org/2000/svg" viewBox="0 0 49.3 49.43">
  <defs>
    <style>
      .cls-1 {
        fill: #9ad5ce;
      }

      .cls-2 {
        fill: #008996;
      }
    </style>
  </defs>
  <g id="Layer_1-2" data-name="Layer_1">
    <g>
      <path class="cls-1" d="M40.9,24.1c-.6-1.1-1.3-2-1.6-3.8-1.3-6.2-6.2-6.7-8.8-7.1-3.6-.5-3.6-2.6-3.6-2.6h0c0-.6-.5-.9-1-.9l-7.1.9h0c-.4,0-.8.4-.8.9s0,3.2-2.6,4h-.5c-1,.4-2.2.8-3.5,1.6-2.7,1.6-4.1,4.2-4.1,7.5s-.4,2.5-.8,3.3c-.5.9-1,1.3-1,3.4s.2.6.4.7c0,0,2.9,1.7,3.9,2.3h.3c.1,0,.2,0,.3-.1l.4-.4c2.6-2.8,2.6-5.6,2.6-6.5,0,5.3,1.8,7.1,1.8,8.8v1h0v1.7c0,1.8-2.6,5.3-2.6,8.8s.4.9.9.9h21.2c.5,0,.9-.4.9-.9,0-4.4-1.7-7.1-1.7-9.6v-2.8c0-1.8.9-4.4.9-9.7,0,.9,0,3.8,2.6,5.8,0,0,.2.2.5.3h.4l4.1-2.3c.2-.2.3-.4.3-.7-.2-2.4-1-3.3-1.8-4.6h0v.1Z"/>
      <polygon class="cls-2" points="48.1 10 38.4 14.5 43.1 10.1 40 9.1 45.5 5 49.3 6.2 45.1 9 48.1 10"/>
      <polygon class="cls-2" points="41.4 3.9 35.4 12.7 37.2 6.5 34.1 7.3 36.6 .9 40.5 0 38.3 4.6 41.4 3.9"/>
      <polygon class="cls-2" points="5.1 6.6 9.2 16.5 5 11.7 4 14.7 0 9.1 1.3 5.3 4 9.6 5.1 6.6"/>
    </g>
  </g>
</svg>