<?xml version="1.0" encoding="UTF-8"?>
<svg id="Layer_2" xmlns="http://www.w3.org/2000/svg" viewBox="0 0 64.46 42.09">
  <defs>
    <style>
      .cls-1 {
        fill: #9ad5ce;
      }

      .cls-2 {
        fill: #008996;
      }
    </style>
  </defs>
  <g id="Layer_1-2" data-name="Layer_1">
    <g id="Layer_1-3" data-name="Layer_1">
      <g id="Layer_1-2">
        <g>
          <polygon class="cls-2" points="0 27.7 7.7 29.4 4.5 30.9 19.6 31.8 10.1 28.6 13.3 27 3.8 23.9 0 27.7"/>
          <polygon class="cls-2" points="3.6 38.8 9.8 36.6 8.3 39 19.2 33 11.1 34.9 12.6 32.5 4.5 34.5 3.6 38.8"/>
          <path class="cls-1" d="M28.3,1c-.9,1-.8,2.7.1,3.8l4.7,5.5-11.4,22.1c-.7,1.3-.3,3,1,3.8l9.2,5.5c1,.6,2.4.5,3.3-.3s.6-.7.8-1.2c.5-1.3,0-2.8-1.3-3.5l-6.8-4,1.9-3.6,7.7,4.3c2,1.4,4.6,1.7,6.9,1l9.2-2.7,5.5,3.5c1.2.9,3,.9,4.2-.2s.4-.3.5-.5c.5-.7.8-1.6.6-2.5s-.6-1.7-1.3-2.2l-6.9-4.5c-.9-.7-2-.8-3.1-.5l-6.7,1,1.7-5.1,8.5-.4c1.8,0,3.4-1.6,3.4-3.4s-.3-1.8-1-2.4c-.6-.6-1.5-1-2.4-1l-10.8.3c-1.4,0-2.7.9-3.2,2.2l-1.9,6-5.5-3.2,3.6-7.7c.6-1,.4-2.3-.3-3.2l-6-6.9c-.5-.6-1.3-1-2.2-1s-1.2.2-1.7.6c-.2.1-.3.3-.4.4h.1ZM15.7,21.6c2.4,2.7,6.5,3,9.2.7,2.7-2.4,3-6.5.7-9.2s-6.5-3-9.2-.7c-2.7,2.4-3,6.5-.7,9.2Z"/>
        </g>
      </g>
    </g>
  </g>
</svg>