<?xml version="1.0" encoding="UTF-8"?>
<svg id="Layer_2" xmlns="http://www.w3.org/2000/svg" viewBox="0 0 42 50.4">
  <defs>
    <style>
      .cls-1 {
        fill: #a6d2cd;
      }

      .cls-2 {
        fill: #3c8794;
      }
    </style>
  </defs>
  <g id="Layer_1-2" data-name="Layer_1">
    <path class="cls-2" d="M21.3,7.2c.3-.5.9-.8,1.5-.9.6,0,1.2.1,1.6.5,0,0,4.2,3.7,8.6,3.7h.3c-1-5.9-6.2-10.5-12.4-10.5s-11.4,4.5-12.4,10.4c5.3-.3,11.3-1.3,12.8-3.3h0v.1Z"/>
    <path class="cls-1" d="M32.9,14.7h0c-4.1,0-7.8-2.1-9.8-3.5-3.6,2.6-10.2,3.3-14.6,3.5,1,6,6.2,10.5,12.4,10.5s11.4-4.5,12.4-10.5h-.4Z"/>
    <path class="cls-2" d="M16.8,44.1h-6.3c-1.2,0-2.1-.9-2.1-2.1s.7-1.8,1.7-2l-1.3-10.4c-4.9.6-8.8,4.8-8.8,9.8v7.3c0,2,1.6,3.7,3.7,3.7h19.4c0-3.5-2.8-6.3-6.3-6.3h0Z"/>
    <path class="cls-1" d="M13,29.3l1.3,10.5h2.5c.5,0,1.1,0,1.6.2l2.1-10.6h-7.5v-.1Z"/>
    <path class="cls-1" d="M32,29.4h-7.3l-2.3,12.1c2.9,1.9,4.9,5.1,4.9,8.8h11c2,0,3.7-1.6,3.7-3.7v-7.3c0-5.5-4.5-10-10-10h0v.1Z"/>
  </g>
</svg>