<?xml version="1.0" encoding="UTF-8"?>
<svg id="Layer_2" xmlns="http://www.w3.org/2000/svg" viewBox="0 0 32.3 50.3">
  <defs>
    <style>
      .cls-1 {
        fill: #b8dff4;
      }

      .cls-2 {
        fill: #66d3a4;
      }

      .cls-3 {
        fill: #9ae2bf;
      }
    </style>
  </defs>
  <g id="Layer_1-2" data-name="Layer_1">
    <g>
      <path class="cls-3" d="M31.2,50.3h-11.2c-3.1,0-5.6-2.5-5.6-5.6v-4.5c0-.6.5-1.1,1.1-1.1s1.1.5,1.1,1.1v4.5c0,1.9,1.5,3.4,3.4,3.4h11.2c.6,0,1.1.5,1.1,1.1s-.5,1.1-1.1,1.1Z"/>
      <path class="cls-2" d="M31.4,11.2l-.02,13.4h-6.88v-4.5c0-1.2-1-2.2-2.2-2.2h-13.4c-1.2,0-2.2,1-2.2,2.2v4.5H0v-13.4c0-2.5,2-4.5,4.5-4.5h4.5c0-3.7,3-6.7,6.7-6.7s6.7,3,6.7,6.7h4.5c2.5,0,4.5,2,4.5,4.5h0Z"/>
      <path class="cls-2" d="M31.4,24.5v11.2c0,2.5-2,4.5-4.5,4.5H4.5C2,40.2,0,38.2,0,35.7v-11.2h6.7v4.5c0,1.2,1,2.2,2.2,2.2h13.4c1.2,0,2.2-1,2.2-2.2v-4.5h6.9Z"/>
      <path class="cls-1" d="M15.6,7.8c-.6,0-1.1-.5-1.1-1.1s.5-1.1,1.1-1.1h0c.6,0,1.1.5,1.1,1.1s-.5,1.1-1.1,1.1Z"/>
      <path class="cls-3" d="M24.5,20.1v9c0,1.2-1,2.2-2.2,2.2h-13.4c-1.2,0-2.2-1-2.2-2.2v-9c0-1.2,1-2.2,2.2-2.2h13.4c1.2,0,2.2,1,2.2,2.2Z"/>
    </g>
  </g>
</svg>