<?xml version="1.0" encoding="UTF-8"?>
<svg id="Layer_2" xmlns="http://www.w3.org/2000/svg" viewBox="0 0 78 78">
  <defs>
    <style>
      .cls-1 {
        fill: #b8dff4;
      }

      .cls-2 {
        fill: #fff;
      }

      .cls-3 {
        fill: #66d3a4;
      }

      .cls-4 {
        fill: #9ae2bf;
      }
    </style>
  </defs>
  <g id="Layer_1-2" data-name="Layer_1">
    <g>
      <path id="shape-2" class="cls-2" d="M39,78C17.5,78,0,60.5,0,39h0C0,17.5,17.5,0,39,0h0c21.5,0,39,17.5,39,39h0c0,21.5-17.5,39-39,39Z"/>
      <g>
        <path class="cls-4" d="M54.05,64.15h-11.2c-3.1,0-5.6-2.5-5.6-5.6v-4.5c0-.6.5-1.1,1.1-1.1s1.1.5,1.1,1.1v4.5c0,1.9,1.5,3.4,3.4,3.4h11.2c.6,0,1.1.5,1.1,1.1s-.5,1.1-1.1,1.1Z"/>
        <path class="cls-3" d="M54.25,25.05l-.02,13.4h-6.88v-4.5c0-1.2-1-2.2-2.2-2.2h-13.4c-1.2,0-2.2,1-2.2,2.2v4.5h-6.7v-13.4c0-2.5,2-4.5,4.5-4.5h4.5c0-3.7,3-6.7,6.7-6.7s6.7,3,6.7,6.7h4.5c2.5,0,4.5,2,4.5,4.5h0Z"/>
        <path class="cls-3" d="M54.25,38.35v11.2c0,2.5-2,4.5-4.5,4.5h-22.4c-2.5,0-4.5-2-4.5-4.5v-11.2h6.7v4.5c0,1.2,1,2.2,2.2,2.2h13.4c1.2,0,2.2-1,2.2-2.2v-4.5h6.9Z"/>
        <path class="cls-1" d="M38.45,21.65c-.6,0-1.1-.5-1.1-1.1s.5-1.1,1.1-1.1h0c.6,0,1.1.5,1.1,1.1s-.5,1.1-1.1,1.1Z"/>
        <path class="cls-4" d="M47.35,33.95v9c0,1.2-1,2.2-2.2,2.2h-13.4c-1.2,0-2.2-1-2.2-2.2v-9c0-1.2,1-2.2,2.2-2.2h13.4c1.2,0,2.2,1,2.2,2.2Z"/>
      </g>
    </g>
  </g>
</svg>