<?xml version="1.0" encoding="UTF-8"?>
<svg id="Layer_2" xmlns="http://www.w3.org/2000/svg" viewBox="0 0 78 78">
  <defs>
    <style>
      .cls-1 {
        fill: #fff;
      }

      .cls-2 {
        fill: #66d3a4;
      }

      .cls-3 {
        fill: #9ae2bf;
      }
    </style>
  </defs>
  <g id="Layer_1-2" data-name="Layer_1">
    <g>
      <path id="shape-7" class="cls-1" d="M39,78C17.5,78,0,60.5,0,39h0C0,17.5,17.5,0,39,0h0c21.5,0,39,17.5,39,39h0c0,21.5-17.5,39-39,39Z"/>
      <g>
        <path class="cls-3" d="M54.5,19.4c-2,0-3.6.8-4.6,1.9-1,1.2-1.5,2.7-1.5,4.2s.5,3.1,1.5,4.2c1,1.2,2.6,1.9,4.6,1.9s3.6-.8,4.6-1.9c1-1.2,1.5-2.7,1.5-4.2s-.5-3.1-1.5-4.2c-1-1.2-2.6-1.9-4.6-1.9ZM55.1,33.4c-.4,0-.8,0-1.2.2h-.3l-17,3c-2,.2-3.5,1.7-3.7,3.7,0,2,1.7,3.7,3.7,3.7l11-1.5-2.1,5.3-2.1-2.5-6.8.6c-3,.2-5.6-2.1-5.8-5.2v-.4l-6.1,4.3c-1.7,1.2-2.1,3.5-1,5.2,1.2,1.7,3.5,2.1,5.2,1h0l5.7-4,3.9,7.1h-17.9c-2,0-3.7,1.7-3.7,3.7s1.7,3.7,3.7,3.7h26.5c3.2,0,6.1-1.9,7.4-4.9l6.2-14.8c.6-1.5.6-3.1,0-4.6-1-2.2-3.2-3.6-5.6-3.5v-.1Z"/>
        <polygon class="cls-2" points="17.5 16.8 22.2 24.2 18.5 22.9 29.6 35.3 24.7 25.4 28.4 26.6 23.4 16.8 17.5 16.8"/>
      </g>
    </g>
  </g>
</svg>