<?xml version="1.0" encoding="UTF-8"?>
<svg id="Layer_2" xmlns="http://www.w3.org/2000/svg" viewBox="0 0 44.25 44.5">
  <defs>
    <style>
      .cls-1 {
        fill: #a6d2cd;
      }

      .cls-2 {
        fill: #3c8794;
      }
    </style>
  </defs>
  <g id="Layer_1-2" data-name="Layer_1">
    <path class="cls-1" d="M37.6,2.6c-2,0-3.6.8-4.6,1.9-1,1.2-1.5,2.7-1.5,4.2s.5,3.1,1.5,4.2c1,1.2,2.6,1.9,4.6,1.9s3.6-.8,4.6-1.9c1-1.2,1.5-2.7,1.5-4.2s-.5-3.1-1.5-4.2c-1-1.2-2.6-1.9-4.6-1.9ZM38.2,16.6c-.4,0-.8,0-1.2.2h-.3l-17,3c-2,.2-3.5,1.7-3.7,3.7,0,2,1.7,3.7,3.7,3.7l11-1.5-2.1,5.3-2.1-2.5-6.8.6c-3,.2-5.6-2.1-5.8-5.2v-.4l-6.1,4.3c-1.7,1.2-2.1,3.5-1,5.2,1.2,1.7,3.5,2.1,5.2,1h0l5.7-4,3.9,7.1H3.7c-2,0-3.7,1.7-3.7,3.7s1.7,3.7,3.7,3.7h26.5c3.2,0,6.1-1.9,7.4-4.9l6.2-14.8c.6-1.5.6-3.1,0-4.6-1-2.2-3.2-3.6-5.6-3.5h0v-.1Z"/>
    <polygon class="cls-2" points=".6 0 5.3 7.4 1.6 6.1 12.7 18.5 7.8 8.6 11.5 9.8 6.5 0 .6 0"/>
  </g>
</svg>