<?xml version="1.0" encoding="UTF-8"?>
<svg id="Layer_2" xmlns="http://www.w3.org/2000/svg" viewBox="0 0 57.09 37.08">
  <defs>
    <style>
      .cls-1 {
        fill: #9ad5ce;
      }

      .cls-2 {
        fill: #008996;
      }
    </style>
  </defs>
  <g id="Layer_1-2" data-name="Layer_1">
    <g>
      <polygon class="cls-2" points="0 24.48 6.86 26.01 4.03 27.37 17.34 28.09 8.95 25.27 11.73 23.85 3.34 21.14 0 24.48"/>
      <polygon class="cls-2" points="3.19 34.26 8.68 32.32 7.3 34.5 16.96 29.19 9.81 30.9 11.12 28.7 4.03 30.49 3.19 34.26"/>
      <path class="cls-1" d="M25.04.91c-.76.92-.73,2.34.11,3.31l4.17,4.84-10.1,19.47c-.64,1.19-.23,2.66.92,3.34l8.15,4.86c.92.55,2.09.45,2.91-.25.32-.27.56-.63.71-1.02.43-1.11-.08-2.43-1.15-3.08l-5.99-3.57,1.7-3.14,6.83,3.84c1.8,1.2,4.02,1.51,6.08.84l8.12-2.37,4.83,3.08c1.08.81,2.66.76,3.72-.16.16-.14.31-.3.45-.48.47-.65.68-1.43.56-2.23s-.53-1.49-1.17-1.97l-6.11-4.01c-.77-.58-1.8-.74-2.75-.42l-5.88.89,1.49-4.49,7.48-.31c1.58.01,3-1.39,3.02-2.97,0-.81-.3-1.56-.87-2.13-.56-.57-1.31-.89-2.11-.9l-9.57.31c-1.25-.02-2.39.78-2.83,1.97l-1.71,5.29-4.82-2.8,3.2-6.82c.49-.91.37-2.04-.31-2.82L28.86.87C28.39.32,27.69,0,26.95,0c-.55,0-1.08.19-1.51.53-.14.11-.28.24-.4.38ZM13.85,19.08c2.08,2.41,5.71,2.68,8.12.6,2.41-2.08,2.68-5.71.6-8.12s-5.71-2.68-8.12-.6c-2.41,2.08-2.68,5.71-.6,8.12Z"/>
    </g>
  </g>
</svg>