<?xml version="1.0" encoding="UTF-8"?>
<svg id="Layer_2" xmlns="http://www.w3.org/2000/svg" viewBox="0 0 78 78">
  <defs>
    <style>
      .cls-1 {
        fill: #fff;
      }

      .cls-2 {
        fill: #66d3a4;
      }

      .cls-3 {
        fill: #9ae2bf;
      }
    </style>
  </defs>
  <g id="Layer_1-2" data-name="Layer_1">
    <g>
      <path id="shape-3" class="cls-1" d="M39,78C17.5,78,0,60.5,0,39h0C0,17.5,17.5,0,39,0h0c21.5,0,39,17.5,39,39h0c0,21.5-17.5,39-39,39Z"/>
      <g>
        <path class="cls-2" d="M48,47.9h-.4c-1.7.7-5.2,2.2-8.6,2.2s-7-1.5-8.8-2.2c-.4-.1-.7,0-1.1.1s-.5.6-.5.9v3.3l-.5.1c-.8,0-1.6-.2-2.4-.7-.5-.3-1.1-.5-1.8-.5h-.6c-1.8.3-3,1.9-2.8,3.7s1.6,3.1,3.4,3.1c.7,0,1.3-.2,1.8-.5.7-.4,1.5-.6,2.4-.6h.3c0-.1,0,3.5,0,3.5,0,.4.2.8.5,1,3,1.6,6.4,2.4,9.8,2.5,3.4,0,6.7-.8,9.7-2.3.3-.2.5-.6.5-1v-3.6h.4c.8,0,1.7.2,2.4.6.5.4,1.2.5,1.8.5,1.8,0,3.3-1.4,3.4-3.1.2-1.8-1.1-3.4-2.8-3.7h-.6c-.6,0-1.2.2-1.8.5-.7.4-1.5.7-2.4.7h-.6v-3.5c0-.6-.6-1.1-1.2-1.1h0l.5.1Z"/>
        <path class="cls-3" d="M48,30.9h-.4c-1.7.7-5.2,2.2-8.6,2.2s-7-1.5-8.8-2.2c-.4-.1-.7,0-1.1.1s-.5.6-.5.9v3.3l-.5.1c-.8,0-1.6-.2-2.4-.7-.5-.3-1.1-.5-1.8-.5h-.6c-1.8.3-3,1.9-2.8,3.7s1.6,3.1,3.4,3.1c.7,0,1.3-.2,1.8-.5.7-.4,1.5-.6,2.4-.6h.3c0-.1,0,3.5,0,3.5,0,.4.2.8.5,1,3,1.6,6.4,2.4,9.8,2.5,3.4,0,6.7-.8,9.7-2.3.3-.2.5-.6.5-1v-3.6h.4c.8,0,1.7.2,2.4.6.5.4,1.2.5,1.8.5,1.8,0,3.3-1.4,3.4-3.1.2-1.8-1.1-3.4-2.8-3.7h-.6c-.6,0-1.2.2-1.8.5-.7.4-1.5.7-2.4.7h-.6v-3.5c0-.6-.6-1.1-1.2-1.1h0l.5.1Z"/>
        <path class="cls-2" d="M48,13.9h-.4c-1.7.7-5.2,2.2-8.6,2.2s-7-1.5-8.8-2.2c-.4-.1-.7,0-1.1.1s-.5.6-.5.9v3.3l-.5.1c-.8,0-1.6-.2-2.4-.7-.5-.3-1.1-.5-1.8-.5h-.6c-1.8.3-3,1.9-2.8,3.7s1.6,3.1,3.4,3.1c.7,0,1.3-.2,1.8-.5.7-.4,1.5-.6,2.4-.6h.3c0-.1,0,3.5,0,3.5,0,.4.2.8.5,1,3,1.6,6.4,2.4,9.8,2.5,3.4,0,6.7-.8,9.7-2.3.3-.2.5-.6.5-1v-3.6h.4c.8,0,1.7.2,2.4.6.5.4,1.2.5,1.8.5,1.8,0,3.3-1.4,3.4-3.1.2-1.8-1.1-3.4-2.8-3.7h-.6c-.6,0-1.2.2-1.8.5-.7.4-1.5.7-2.4.7h-.6v-3.5c0-.6-.6-1.1-1.2-1.1h0l.5.1Z"/>
      </g>
    </g>
  </g>
</svg>