<?xml version="1.0" encoding="UTF-8"?>
<svg id="Layer_2" xmlns="http://www.w3.org/2000/svg" viewBox="0 0 36.44 50">
  <defs>
    <style>
      .cls-1 {
        fill: #a6d2cd;
      }

      .cls-2 {
        fill: #3c8794;
      }
    </style>
  </defs>
  <g id="Layer_1-2" data-name="Layer_1">
    <path class="cls-2" d="M27.52,34.1h-.4c-1.7.7-5.2,2.2-8.6,2.2s-7-1.5-8.8-2.2c-.4-.1-.7,0-1.1.1s-.5.6-.5.9v3.3h-.5c-.8.1-1.6,0-2.4-.6-.5-.3-1.1-.5-1.8-.5h-.6c-1.8.3-3,1.9-2.8,3.7s1.6,3.1,3.4,3.1,1.3-.2,1.8-.5c.7-.4,1.5-.6,2.4-.6h.3c0-.1,0,3.5,0,3.5,0,.4.2.8.5,1,3,1.6,6.4,2.4,9.8,2.5,3.4,0,6.7-.8,9.7-2.3.3-.2.5-.6.5-1v-3.6h.4c.8,0,1.7.2,2.4.6.5.4,1.2.5,1.8.5,1.8,0,3.3-1.4,3.4-3.1.2-1.8-1.1-3.4-2.8-3.7h-.6c-.6,0-1.2.2-1.8.5-.7.4-1.5.7-2.4.7h-.6v-3.5c0-.6-.6-1.1-1.2-1.1h.5v.1Z"/>
    <path class="cls-1" d="M27.52,17.1h-.4c-1.7.7-5.2,2.2-8.6,2.2s-7-1.5-8.8-2.2c-.4-.1-.7,0-1.1.1s-.5.6-.5.9v3.3h-.5c-.8.1-1.6,0-2.4-.6-.5-.3-1.1-.5-1.8-.5h-.6c-1.8.3-3,1.9-2.8,3.7s1.6,3.1,3.4,3.1,1.3-.2,1.8-.5c.7-.4,1.5-.6,2.4-.6h.3c0-.1,0,3.5,0,3.5,0,.4.2.8.5,1,3,1.6,6.4,2.4,9.8,2.5,3.4,0,6.7-.8,9.7-2.3.3-.2.5-.6.5-1v-3.6h.4c.8,0,1.7.2,2.4.6.5.4,1.2.5,1.8.5,1.8,0,3.3-1.4,3.4-3.1.2-1.8-1.1-3.4-2.8-3.7h-.6c-.6,0-1.2.2-1.8.5-.7.4-1.5.7-2.4.7h-.6v-3.5c0-.6-.6-1.1-1.2-1.1h.5v.1Z"/>
    <path class="cls-2" d="M27.52.1h-.4c-1.7.7-5.2,2.2-8.6,2.2S11.52.8,9.72.1C9.32,0,9.02.1,8.62.2s-.5.6-.5.9v3.3h-.5c-.8.1-1.6,0-2.4-.6-.5-.3-1.1-.5-1.8-.5h-.6C1.02,3.6-.18,5.2.02,7s1.6,3.1,3.4,3.1,1.3-.2,1.8-.5c.7-.4,1.5-.6,2.4-.6h.3c0-.1,0,3.5,0,3.5,0,.4.2.8.5,1,3,1.6,6.4,2.4,9.8,2.5,3.4,0,6.7-.8,9.7-2.3.3-.2.5-.6.5-1v-3.6h.4c.8,0,1.7.2,2.4.6.5.4,1.2.5,1.8.5,1.8,0,3.3-1.4,3.4-3.1.2-1.8-1.1-3.4-2.8-3.7h-.6c-.6,0-1.2.2-1.8.5-.7.4-1.5.7-2.4.7h-.6V1.1c0-.6-.6-1.1-1.2-1.1h.5v.1Z"/>
  </g>
</svg>